<?xml version="1.0" encoding="UTF-8" standalone="no"?>
<!-- Created with Inkscape (http://www.inkscape.org/) -->

<svg
   version="1.1"
   id="svg2"
   width="454.30798"
   height="649.21051"
   viewBox="0 0 454.30798 649.21051"
   sodipodi:docname="Sobral.pdf"
   xmlns:inkscape="http://www.inkscape.org/namespaces/inkscape"
   xmlns:sodipodi="http://sodipodi.sourceforge.net/DTD/sodipodi-0.dtd"
   xmlns="http://www.w3.org/2000/svg"
   xmlns:svg="http://www.w3.org/2000/svg">
  <defs
     id="defs6">
    <clipPath
       clipPathUnits="userSpaceOnUse"
       id="clipPath18">
      <path
         d="M 0,595.276 H 841.89 V 0 H 0 Z"
         id="path16" />
    </clipPath>
  </defs>
  <sodipodi:namedview
     id="namedview4"
     pagecolor="#ffffff"
     bordercolor="#000000"
     borderopacity="0.25"
     inkscape:showpageshadow="2"
     inkscape:pageopacity="0.0"
     inkscape:pagecheckerboard="0"
     inkscape:deskcolor="#d1d1d1"
     showgrid="false" />
  <g
     id="g10"
     inkscape:groupmode="layer"
     inkscape:label="Page 1"
     transform="matrix(1.3333333,0,0,-1.3333333,-334.13465,729.06185)">
    <g
       id="g12">
      <g
         id="g14"
         clip-path="url(#clipPath18)">
        <g
           id="g20"
           transform="translate(355.0391,138.5822)">
          <path
             d="m 0,0 c -3.432,0 -6.142,-1.141 -8.128,-3.423 -1.987,-2.282 -2.981,-5.406 -2.981,-9.373 0,-4.081 0.958,-7.233 2.874,-9.458 1.915,-2.225 4.646,-3.338 8.193,-3.338 2.179,0 4.664,0.391 7.456,1.173 v -3.178 c -2.165,-0.81 -4.836,-1.215 -8.012,-1.215 -4.601,0 -8.15,1.393 -10.65,4.18 -2.499,2.786 -3.749,6.746 -3.749,11.879 0,3.213 0.601,6.027 1.805,8.445 1.204,2.417 2.941,4.28 5.213,5.587 2.271,1.309 4.946,1.963 8.022,1.963 3.275,0 6.138,-0.597 8.588,-1.792 L 7.093,-1.663 C 4.729,-0.555 2.364,0 0,0"
             style="fill:#1f1713;fill-opacity:1;fill-rule:nonzero;stroke:none"
             id="path22" />
        </g>
        <g
           id="g24"
           transform="translate(375.1206,112.6916)">
          <path
             d="M 0,0 C 2.208,0 3.942,0.604 5.202,1.812 6.463,3.021 7.093,4.713 7.093,6.889 V 9 L 3.546,8.851 C 0.727,8.751 -1.307,8.313 -2.553,7.539 -3.799,6.764 -4.422,5.559 -4.422,3.924 -4.422,2.645 -4.034,1.671 -3.258,1.003 -2.481,0.334 -1.396,0 0,0 M 8.012,-2.495 7.307,0.832 H 7.136 C 5.968,-0.633 4.803,-1.624 3.643,-2.144 2.482,-2.662 1.033,-2.922 -0.705,-2.922 c -2.321,0 -4.141,0.598 -5.458,1.792 -1.317,1.194 -1.976,2.893 -1.976,5.097 0,4.721 3.781,7.194 11.344,7.422 l 3.973,0.128 v 1.45 c 0,1.834 -0.395,3.188 -1.185,4.062 -0.791,0.875 -2.055,1.312 -3.792,1.312 -1.952,0 -4.159,-0.597 -6.623,-1.791 l -1.09,2.708 c 1.154,0.626 2.418,1.116 3.792,1.471 1.375,0.356 2.753,0.534 4.135,0.534 2.791,0 4.859,-0.618 6.206,-1.856 1.345,-1.236 2.018,-3.22 2.018,-5.95 V -2.495 Z"
             style="fill:#1f1713;fill-opacity:1;fill-rule:nonzero;stroke:none"
             id="path26" />
        </g>
        <g
           id="g28"
           transform="translate(422.9116,110.1965)">
          <path
             d="m 0,0 v 15.206 c 0,1.862 -0.399,3.259 -1.196,4.19 -0.798,0.932 -2.037,1.398 -3.718,1.398 -2.208,0 -3.838,-0.633 -4.892,-1.898 -1.054,-1.266 -1.581,-3.214 -1.581,-5.844 V 0 h -3.546 v 15.206 c 0,1.862 -0.399,3.259 -1.196,4.19 -0.798,0.932 -2.044,1.398 -3.739,1.398 -2.222,0 -3.849,-0.665 -4.882,-1.994 -1.033,-1.33 -1.549,-3.509 -1.549,-6.537 V 0 h -3.546 v 23.374 h 2.884 l 0.577,-3.199 h 0.171 c 0.669,1.137 1.613,2.026 2.831,2.666 1.217,0.639 2.581,0.96 4.09,0.96 3.661,0 6.054,-1.322 7.179,-3.967 h 0.171 c 0.697,1.223 1.709,2.189 3.033,2.9 1.325,0.711 2.834,1.067 4.53,1.067 2.649,0 4.631,-0.68 5.949,-2.037 1.317,-1.358 1.976,-3.53 1.976,-6.515 L 3.546,0 Z"
             style="fill:#1f1713;fill-opacity:1;fill-rule:nonzero;stroke:none"
             id="path30" />
        </g>
        <g
           id="g32"
           transform="translate(444.1465,130.9904)">
          <path
             d="M 0,0 C -2.393,0 -4.123,-0.661 -5.191,-1.983 -6.259,-3.306 -6.808,-5.41 -6.836,-8.297 v -0.789 c 0,-3.284 0.548,-5.634 1.645,-7.048 1.096,-1.415 2.855,-2.122 5.276,-2.122 2.023,0 3.607,0.818 4.754,2.452 1.146,1.635 1.72,3.889 1.72,6.761 0,2.914 -0.574,5.15 -1.72,6.707 C 3.692,-0.779 2.08,0 0,0 m 0.513,-21.221 c -1.524,0 -2.916,0.282 -4.177,0.843 -1.26,0.562 -2.318,1.425 -3.172,2.591 h -0.257 c 0.171,-1.364 0.257,-2.658 0.257,-3.881 v -9.619 h -3.547 V 2.58 h 2.884 l 0.492,-3.199 h 0.171 c 0.911,1.28 1.972,2.204 3.183,2.772 1.21,0.569 2.599,0.854 4.166,0.854 3.105,0 5.501,-1.06 7.189,-3.178 1.687,-2.119 2.531,-5.09 2.531,-8.915 0,-3.839 -0.858,-6.821 -2.574,-8.946 -1.717,-2.126 -4.098,-3.189 -7.146,-3.189"
             style="fill:#1f1713;fill-opacity:1;fill-rule:nonzero;stroke:none"
             id="path34" />
        </g>
        <g
           id="g36"
           transform="translate(463.9082,133.5705)">
          <path
             d="m 0,0 v -15.163 c 0,-1.905 0.434,-3.327 1.303,-4.266 0.869,-0.938 2.229,-1.407 4.081,-1.407 2.449,0 4.24,0.668 5.372,2.005 1.133,1.336 1.699,3.518 1.699,6.547 V 0 h 3.546 v -23.374 h -2.927 l -0.512,3.135 H 12.37 c -0.727,-1.152 -1.735,-2.033 -3.023,-2.645 -1.29,-0.611 -2.76,-0.917 -4.412,-0.917 -2.849,0 -4.981,0.676 -6.398,2.027 -1.418,1.35 -2.126,3.511 -2.126,6.483 V 0 Z"
             style="fill:#1f1713;fill-opacity:1;fill-rule:nonzero;stroke:none"
             id="path38" />
        </g>
        <g
           id="g40"
           transform="translate(502.5337,116.5734)">
          <path
             d="m 0,0 c 0,-2.176 -0.812,-3.854 -2.436,-5.033 -1.623,-1.181 -3.902,-1.771 -6.836,-1.771 -3.105,0 -5.526,0.492 -7.264,1.472 v 3.284 c 1.125,-0.568 2.332,-1.016 3.621,-1.344 1.29,-0.327 2.532,-0.49 3.728,-0.49 1.852,0 3.276,0.295 4.273,0.885 0.997,0.59 1.496,1.489 1.496,2.698 0,0.91 -0.395,1.689 -1.186,2.335 -0.791,0.648 -2.333,1.411 -4.625,2.293 -2.179,0.811 -3.728,1.518 -4.647,2.122 -0.918,0.605 -1.602,1.29 -2.051,2.058 -0.448,0.767 -0.673,1.685 -0.673,2.751 0,1.905 0.776,3.409 2.329,4.511 1.552,1.101 3.682,1.653 6.388,1.653 2.521,0 4.985,-0.512 7.391,-1.536 l -1.26,-2.879 c -2.35,0.967 -4.479,1.45 -6.388,1.45 -1.68,0 -2.948,-0.263 -3.802,-0.789 -0.855,-0.526 -1.282,-1.251 -1.282,-2.175 0,-0.626 0.16,-1.159 0.48,-1.599 0.321,-0.442 0.837,-0.861 1.549,-1.259 0.712,-0.398 2.08,-0.974 4.102,-1.728 2.778,-1.01 4.654,-2.025 5.629,-3.05 C -0.488,2.836 0,1.549 0,0"
             style="fill:#1f1713;fill-opacity:1;fill-rule:nonzero;stroke:none"
             id="path42" />
        </g>
        <g
           id="g44"
           transform="translate(377.6084,68.6115)">
          <path
             d="m 0,0 c 0,-2.744 -0.997,-4.884 -2.991,-6.419 -1.994,-1.536 -4.7,-2.304 -8.118,-2.304 -3.703,0 -6.552,0.477 -8.545,1.429 v 3.498 c 1.281,-0.541 2.677,-0.967 4.187,-1.279 1.509,-0.314 3.005,-0.47 4.486,-0.47 2.421,0 4.244,0.459 5.469,1.376 1.225,0.917 1.838,2.192 1.838,3.828 0,1.08 -0.218,1.965 -0.652,2.655 -0.435,0.69 -1.161,1.326 -2.179,1.909 -1.018,0.583 -2.567,1.244 -4.647,1.983 -2.905,1.038 -4.981,2.268 -6.227,3.69 -1.246,1.421 -1.87,3.277 -1.87,5.566 0,2.402 0.905,4.315 2.714,5.737 1.808,1.421 4.201,2.133 7.178,2.133 3.105,0 5.961,-0.569 8.566,-1.707 l -1.132,-3.156 c -2.577,1.081 -5.084,1.621 -7.519,1.621 -1.923,0 -3.426,-0.412 -4.508,-1.237 -1.083,-0.825 -1.624,-1.969 -1.624,-3.434 0,-1.08 0.199,-1.965 0.598,-2.654 0.399,-0.691 1.072,-1.323 2.019,-1.899 0.947,-0.576 2.396,-1.212 4.348,-1.909 C -5.334,7.791 -3.08,6.54 -1.848,5.204 -0.616,3.867 0,2.133 0,0"
             style="fill:#1f1713;fill-opacity:1;fill-rule:nonzero;stroke:none"
             id="path46" />
        </g>
        <g
           id="g48"
           transform="translate(385.8335,72.0236)">
          <path
             d="M 0,0 C 0,-2.985 0.598,-5.261 1.794,-6.824 2.991,-8.389 4.75,-9.17 7.071,-9.17 c 2.322,0 4.084,0.778 5.288,2.335 1.203,1.557 1.805,3.835 1.805,6.835 0,2.972 -0.602,5.229 -1.805,6.771 C 11.155,8.314 9.378,9.086 7.029,9.086 4.707,9.086 2.955,8.325 1.773,6.804 0.591,5.282 0,3.015 0,0 m 17.838,0 c 0,-3.811 -0.961,-6.785 -2.883,-8.925 -1.923,-2.139 -4.58,-3.21 -7.969,-3.21 -2.094,0 -3.952,0.491 -5.576,1.472 -1.624,0.981 -2.877,2.389 -3.76,4.223 -0.883,1.834 -1.324,3.98 -1.324,6.44 0,3.811 0.953,6.778 2.862,8.904 1.909,2.125 4.558,3.189 7.947,3.189 3.276,0 5.879,-1.088 7.809,-3.264 C 16.874,6.654 17.838,3.711 17.838,0"
             style="fill:#1f1713;fill-opacity:1;fill-rule:nonzero;stroke:none"
             id="path50" />
        </g>
        <g
           id="g52"
           transform="translate(420.2715,81.1096)">
          <path
             d="m 0,0 c -2.421,0 -4.166,-0.693 -5.234,-2.08 -1.068,-1.386 -1.602,-3.722 -1.602,-7.006 0,-3.284 0.548,-5.634 1.645,-7.048 1.096,-1.415 2.855,-2.122 5.276,-2.122 2.18,0 3.803,0.792 4.872,2.378 1.067,1.585 1.602,3.863 1.602,6.835 0,3.042 -0.535,5.311 -1.602,6.804 C 3.888,-0.747 2.236,0 0,0 m 0.513,2.964 c 3.076,0 5.465,-1.049 7.167,-3.146 1.702,-2.097 2.553,-5.065 2.553,-8.904 0,-3.839 -0.858,-6.821 -2.574,-8.946 -1.717,-2.126 -4.098,-3.189 -7.146,-3.189 -1.524,0 -2.916,0.282 -4.177,0.843 -1.26,0.562 -2.318,1.425 -3.172,2.591 h -0.257 l -0.747,-3.007 h -2.543 v 33.185 h 3.547 V 4.329 c 0,-1.806 -0.058,-3.427 -0.171,-4.862 h 0.171 c 1.652,2.331 4.102,3.497 7.349,3.497"
             style="fill:#1f1713;fill-opacity:1;fill-rule:nonzero;stroke:none"
             id="path54" />
        </g>
        <g
           id="g56"
           transform="translate(447.3818,84.1164)">
          <path
             d="M 0,0 C 1.04,0 1.972,-0.086 2.798,-0.256 L 2.307,-3.54 c -0.969,0.213 -1.823,0.319 -2.563,0.319 -1.895,0 -3.515,-0.767 -4.861,-2.302 -1.345,-1.537 -2.019,-3.449 -2.019,-5.738 v -12.54 h -3.546 v 23.374 h 2.927 l 0.406,-4.329 h 0.171 c 0.868,1.522 1.915,2.694 3.14,3.519 C -2.813,-0.413 -1.467,0 0,0"
             style="fill:#1f1713;fill-opacity:1;fill-rule:nonzero;stroke:none"
             id="path58" />
        </g>
        <g
           id="g60"
           transform="translate(460.9478,62.8107)">
          <path
             d="M 0,0 C 2.208,0 3.942,0.604 5.202,1.812 6.463,3.021 7.093,4.713 7.093,6.889 V 9 L 3.546,8.851 C 0.727,8.751 -1.307,8.313 -2.553,7.539 -3.799,6.764 -4.422,5.559 -4.422,3.924 -4.422,2.645 -4.034,1.671 -3.258,1.003 -2.481,0.334 -1.396,0 0,0 M 8.012,-2.495 7.307,0.832 H 7.136 C 5.968,-0.633 4.803,-1.624 3.643,-2.144 2.482,-2.662 1.033,-2.922 -0.705,-2.922 c -2.321,0 -4.141,0.598 -5.458,1.792 -1.317,1.194 -1.976,2.893 -1.976,5.097 0,4.721 3.781,7.194 11.344,7.422 l 3.973,0.128 v 1.45 c 0,1.834 -0.395,3.188 -1.185,4.062 -0.791,0.875 -2.055,1.312 -3.792,1.312 -1.952,0 -4.159,-0.597 -6.623,-1.791 l -1.09,2.708 c 1.154,0.626 2.418,1.116 3.792,1.471 1.375,0.356 2.753,0.534 4.135,0.534 2.791,0 4.859,-0.618 6.206,-1.856 1.345,-1.236 2.018,-3.22 2.018,-5.95 V -2.495 Z"
             style="fill:#1f1713;fill-opacity:1;fill-rule:nonzero;stroke:none"
             id="path62" />
        </g>
        <path
           d="m 482.439,60.316 h -3.546 v 33.185 h 3.546 z"
           style="fill:#1f1713;fill-opacity:1;fill-rule:nonzero;stroke:none"
           id="path64" />
        <g
           id="g66"
           transform="translate(591.332,159.0539)">
          <path
             d="m 0,0 c 0,-0.655 -0.7,-1.18 -1.563,-1.18 h -337.604 c -0.864,0 -1.564,0.525 -1.564,1.18 0,0.651 0.7,1.184 1.564,1.184 H -1.563 C -0.7,1.184 0,0.651 0,0"
             style="fill:#3da33c;fill-opacity:1;fill-rule:nonzero;stroke:none"
             id="path68" />
        </g>
        <g
           id="g70"
           transform="translate(379.2861,211.8283)">
          <path
             d="m 0,0 c -3.432,0 -6.142,-1.141 -8.128,-3.423 -1.987,-2.282 -2.981,-5.406 -2.981,-9.373 0,-4.081 0.958,-7.233 2.874,-9.458 1.915,-2.225 4.646,-3.338 8.193,-3.338 2.179,0 4.664,0.391 7.456,1.173 v -3.178 c -2.165,-0.81 -4.836,-1.215 -8.012,-1.215 -4.601,0 -8.15,1.393 -10.65,4.18 -2.499,2.786 -3.749,6.746 -3.749,11.879 0,3.213 0.601,6.027 1.805,8.445 1.204,2.417 2.941,4.28 5.213,5.587 2.271,1.309 4.946,1.963 8.022,1.963 3.275,0 6.138,-0.597 8.588,-1.792 L 7.093,-1.663 C 4.729,-0.555 2.364,0 0,0"
             style="fill:#1f1713;fill-opacity:1;fill-rule:nonzero;stroke:none"
             id="path72" />
        </g>
        <g
           id="g74"
           transform="translate(401.9102,204.2785)">
          <path
             d="M 0,0 C -1.88,0 -3.379,-0.611 -4.497,-1.834 -5.615,-3.057 -6.274,-4.749 -6.473,-6.909 H 5.768 c 0,2.231 -0.498,3.941 -1.495,5.129 C 3.276,-0.594 1.851,0 0,0 m 0.961,-21.263 c -3.461,0 -6.192,1.052 -8.192,3.157 -2.002,2.104 -3.002,5.026 -3.002,8.765 0,3.768 0.929,6.761 2.788,8.979 1.859,2.217 4.354,3.327 7.488,3.327 2.934,0 5.255,-0.964 6.964,-2.89 1.709,-1.927 2.564,-4.469 2.564,-7.625 v -2.239 h -16.13 c 0.072,-2.744 0.766,-4.827 2.083,-6.248 1.317,-1.422 3.173,-2.133 5.565,-2.133 2.521,0 5.014,0.525 7.478,1.578 v -3.156 C 7.313,-20.289 6.128,-20.676 5.01,-20.91 3.892,-21.146 2.542,-21.263 0.961,-21.263"
             style="fill:#1f1713;fill-opacity:1;fill-rule:nonzero;stroke:none"
             id="path76" />
        </g>
        <g
           id="g78"
           transform="translate(423.9146,185.9377)">
          <path
             d="M 0,0 C 2.208,0 3.942,0.604 5.202,1.812 6.463,3.021 7.093,4.713 7.093,6.889 V 9 L 3.546,8.851 C 0.727,8.751 -1.307,8.313 -2.553,7.539 -3.799,6.764 -4.422,5.559 -4.422,3.924 -4.422,2.645 -4.034,1.671 -3.258,1.003 -2.481,0.334 -1.396,0 0,0 M 8.012,-2.495 7.307,0.832 H 7.136 C 5.968,-0.633 4.803,-1.624 3.643,-2.144 2.482,-2.662 1.033,-2.922 -0.705,-2.922 c -2.321,0 -4.141,0.598 -5.458,1.792 -1.317,1.194 -1.976,2.893 -1.976,5.097 0,4.721 3.781,7.194 11.344,7.422 l 3.973,0.128 v 1.45 c 0,1.834 -0.395,3.188 -1.185,4.062 -0.791,0.875 -2.055,1.312 -3.792,1.312 -1.952,0 -4.159,-0.597 -6.623,-1.791 l -1.09,2.708 c 1.154,0.626 2.418,1.116 3.792,1.471 1.375,0.356 2.753,0.534 4.135,0.534 2.791,0 4.859,-0.618 6.206,-1.856 1.345,-1.236 2.018,-3.22 2.018,-5.95 V -2.495 Z"
             style="fill:#1f1713;fill-opacity:1;fill-rule:nonzero;stroke:none"
             id="path80" />
        </g>
        <g
           id="g82"
           transform="translate(452.542,207.2434)">
          <path
             d="M 0,0 C 1.04,0 1.972,-0.086 2.798,-0.256 L 2.307,-3.54 c -0.969,0.213 -1.823,0.319 -2.563,0.319 -1.895,0 -3.515,-0.767 -4.861,-2.302 -1.345,-1.537 -2.019,-3.449 -2.019,-5.738 v -12.54 h -3.546 v 23.374 h 2.927 l 0.406,-4.329 h 0.171 c 0.868,1.522 1.915,2.694 3.14,3.519 C -2.813,-0.413 -1.467,0 0,0"
             style="fill:#1f1713;fill-opacity:1;fill-rule:nonzero;stroke:none"
             id="path84" />
        </g>
        <g
           id="g86"
           transform="translate(465.2744,210.4426)">
          <path
             d="m 0,0 c 0.684,0.881 1.421,1.947 2.211,3.198 0.79,1.251 1.414,2.339 1.87,3.264 H 8.396 V 6.014 C 7.769,5.089 6.836,3.952 5.597,2.602 4.358,1.251 3.283,0.205 2.372,-0.533 H 0 Z m 0.833,-24.505 c 2.208,0 3.942,0.605 5.202,1.813 1.261,1.209 1.891,2.9 1.891,5.076 v 2.111 l -3.547,-0.149 c -2.819,-0.1 -4.853,-0.537 -6.099,-1.312 -1.246,-0.775 -1.869,-1.98 -1.869,-3.615 0,-1.279 0.388,-2.253 1.164,-2.921 0.777,-0.669 1.863,-1.003 3.258,-1.003 M 8.845,-27 8.14,-23.673 H 7.969 c -1.168,-1.465 -2.333,-2.456 -3.493,-2.975 -1.161,-0.519 -2.61,-0.779 -4.348,-0.779 -2.321,0 -4.141,0.598 -5.458,1.792 -1.317,1.195 -1.976,2.893 -1.976,5.097 0,4.721 3.781,7.194 11.344,7.422 l 3.973,0.128 v 1.45 c 0,1.834 -0.395,3.188 -1.185,4.062 -0.791,0.875 -2.055,1.312 -3.792,1.312 -1.952,0 -4.159,-0.597 -6.623,-1.791 l -1.09,2.708 c 1.154,0.626 2.418,1.116 3.792,1.472 1.375,0.355 2.753,0.533 4.135,0.533 2.791,0 4.859,-0.618 6.206,-1.856 1.345,-1.236 2.018,-3.219 2.018,-5.95 V -27 Z"
             style="fill:#1f1713;fill-opacity:1;fill-rule:nonzero;stroke:none"
             id="path88" />
        </g>
        <g
           id="g90"
           transform="translate(441.73,507.2282)">
          <path
             d="m 0,0 c 0,-2.237 -1.805,-4.042 -4.039,-4.042 h -33.448 c -2.237,0 -4.038,1.805 -4.038,4.042 v 33.448 c 0,2.23 1.801,4.042 4.038,4.042 H -4.039 C -1.805,37.49 0,35.678 0,33.448 Z"
             style="fill:#3da33c;fill-opacity:1;fill-rule:nonzero;stroke:none"
             id="path92" />
        </g>
        <g
           id="g94"
           transform="translate(491.5645,507.2282)">
          <path
             d="m 0,0 c 0,-2.237 -1.805,-4.042 -4.035,-4.042 h -33.452 c -2.233,0 -4.042,1.805 -4.042,4.042 v 33.448 c 0,2.23 1.809,4.042 4.042,4.042 H -4.035 C -1.805,37.49 0,35.678 0,33.448 Z"
             style="fill:#3da33c;fill-opacity:1;fill-rule:nonzero;stroke:none"
             id="path96" />
        </g>
        <g
           id="g98"
           transform="translate(491.5645,407.5549)">
          <path
             d="m 0,0 c 0,-2.233 -1.805,-4.042 -4.035,-4.042 h -33.452 c -2.233,0 -4.042,1.809 -4.042,4.042 v 33.445 c 0,2.237 1.809,4.042 4.042,4.042 H -4.035 C -1.805,37.487 0,35.682 0,33.445 Z"
             style="fill:#3da33c;fill-opacity:1;fill-rule:nonzero;stroke:none"
             id="path100" />
        </g>
        <g
           id="g102"
           transform="translate(391.8916,457.426)">
          <path
             d="m 0,0 c 0,-2.24 -1.805,-4.045 -4.038,-4.045 h -33.445 c -2.241,0 -4.042,1.805 -4.042,4.045 v 33.441 c 0,2.233 1.801,4.042 4.042,4.042 H -4.038 C -1.805,37.483 0,35.674 0,33.441 Z"
             style="fill:#3da33c;fill-opacity:1;fill-rule:nonzero;stroke:none"
             id="path104" />
        </g>
        <g
           id="g106"
           transform="translate(441.73,457.426)">
          <path
             d="m 0,0 c 0,-2.24 -1.805,-4.045 -4.039,-4.045 h -33.448 c -2.237,0 -4.038,1.805 -4.038,4.045 v 33.441 c 0,2.233 1.801,4.042 4.038,4.042 H -4.039 C -1.805,37.483 0,35.674 0,33.441 Z"
             style="fill:#3da33c;fill-opacity:1;fill-rule:nonzero;stroke:none"
             id="path108" />
        </g>
        <g
           id="g110"
           transform="translate(391.8916,407.5549)">
          <path
             d="m 0,0 c 0,-2.233 -1.805,-4.042 -4.038,-4.042 h -33.445 c -2.241,0 -4.042,1.809 -4.042,4.042 v 33.445 c 0,2.237 1.801,4.042 4.042,4.042 H -4.038 C -1.805,37.487 0,35.682 0,33.445 Z"
             style="fill:#3da33c;fill-opacity:1;fill-rule:nonzero;stroke:none"
             id="path112" />
        </g>
        <g
           id="g114"
           transform="translate(441.73,407.5549)">
          <path
             d="m 0,0 c 0,-2.233 -1.805,-4.042 -4.039,-4.042 h -33.448 c -2.237,0 -4.038,1.809 -4.038,4.042 v 33.445 c 0,2.237 1.801,4.042 4.038,4.042 H -4.039 C -1.805,37.487 0,35.682 0,33.445 Z"
             style="fill:#3da33c;fill-opacity:1;fill-rule:nonzero;stroke:none"
             id="path116" />
        </g>
        <g
           id="g118"
           transform="translate(391.8916,357.6692)">
          <path
             d="m 0,0 c 0,-2.237 -1.805,-4.042 -4.038,-4.042 h -33.445 c -2.241,0 -4.042,1.805 -4.042,4.042 v 33.438 c 0,2.236 1.801,4.045 4.042,4.045 H -4.038 C -1.805,37.483 0,35.674 0,33.438 Z"
             style="fill:#3da33c;fill-opacity:1;fill-rule:nonzero;stroke:none"
             id="path120" />
        </g>
        <g
           id="g122"
           transform="translate(441.73,357.6692)">
          <path
             d="m 0,0 c 0,-2.237 -1.805,-4.042 -4.039,-4.042 h -33.448 c -2.237,0 -4.038,1.805 -4.038,4.042 v 33.438 c 0,2.236 1.801,4.045 4.038,4.045 H -4.039 C -1.805,37.483 0,35.674 0,33.438 Z"
             style="fill:#3da33c;fill-opacity:1;fill-rule:nonzero;stroke:none"
             id="path124" />
        </g>
        <g
           id="g126"
           transform="translate(393.9673,523.9514)">
          <path
             d="m 0,0 c 0,-12.614 -10.221,-22.845 -22.841,-22.845 -12.61,0 -22.838,10.231 -22.838,22.845 0,12.621 10.228,22.845 22.838,22.845 C -10.221,22.845 0,12.621 0,0"
             style="fill:#cd1e25;fill-opacity:1;fill-rule:nonzero;stroke:none"
             id="path128" />
        </g>
        <path
           d="m 270.532,324.574 h 8.777 v -41.318 h -8.777 z"
           style="fill:#1f1713;fill-opacity:1;fill-rule:nonzero;stroke:none"
           id="path130" />
        <g
           id="g132"
           transform="translate(326.4976,283.2561)">
          <path
             d="m 0,0 h -11.155 l -18.006,31.258 h -0.254 c 0.358,-5.522 0.538,-9.459 0.538,-11.814 V 0 h -7.843 v 41.318 h 11.07 L -7.672,10.372 h 0.198 c -0.283,5.37 -0.425,9.166 -0.425,11.39 V 41.318 H 0 Z"
             style="fill:#1f1713;fill-opacity:1;fill-rule:nonzero;stroke:none"
             id="path134" />
        </g>
        <g
           id="g136"
           transform="translate(361.4673,294.7307)">
          <path
             d="m 0,0 c 0,-3.73 -1.345,-6.67 -4.034,-8.818 -2.69,-2.148 -6.432,-3.222 -11.226,-3.222 -4.416,0 -8.323,0.829 -11.72,2.487 v 8.14 c 2.793,-1.244 5.157,-2.12 7.091,-2.629 1.935,-0.509 3.704,-0.763 5.309,-0.763 1.925,0 3.402,0.368 4.431,1.103 1.028,0.734 1.543,1.827 1.543,3.278 0,0.81 -0.227,1.53 -0.68,2.161 -0.453,0.632 -1.118,1.24 -1.996,1.824 -0.878,0.584 -2.666,1.516 -5.365,2.797 -2.529,1.188 -4.426,2.328 -5.69,3.42 -1.265,1.093 -2.275,2.365 -3.03,3.816 -0.755,1.45 -1.132,3.146 -1.132,5.087 0,3.655 1.241,6.528 3.723,8.62 2.482,2.091 5.912,3.136 10.291,3.136 2.152,0 4.204,-0.253 6.157,-0.762 1.954,-0.509 3.997,-1.226 6.13,-2.149 l -2.831,-6.81 c -2.209,0.904 -4.034,1.535 -5.478,1.893 -1.444,0.358 -2.865,0.537 -4.261,0.537 -1.661,0 -2.935,-0.386 -3.822,-1.159 -0.888,-0.772 -1.331,-1.78 -1.331,-3.024 0,-0.773 0.179,-1.445 0.538,-2.021 0.359,-0.575 0.929,-1.129 1.713,-1.667 0.783,-0.537 2.637,-1.503 5.563,-2.897 3.869,-1.847 6.521,-3.697 7.955,-5.553 C -0.718,4.969 0,2.693 0,0"
             style="fill:#1f1713;fill-opacity:1;fill-rule:nonzero;stroke:none"
             id="path138" />
        </g>
        <g
           id="g140"
           transform="translate(385.0669,283.2561)">
          <path
             d="m 0,0 h -8.776 v 34.027 h -11.24 v 7.291 H 11.239 V 34.027 H 0 Z"
             style="fill:#1f1713;fill-opacity:1;fill-rule:nonzero;stroke:none"
             id="path142" />
        </g>
        <path
           d="m 402.676,324.574 h 8.777 v -41.318 h -8.777 z"
           style="fill:#1f1713;fill-opacity:1;fill-rule:nonzero;stroke:none"
           id="path144" />
        <g
           id="g146"
           transform="translate(437.8384,283.2561)">
          <path
             d="m 0,0 h -8.776 v 34.027 h -11.24 v 7.291 H 11.239 V 34.027 H 0 Z"
             style="fill:#1f1713;fill-opacity:1;fill-rule:nonzero;stroke:none"
             id="path148" />
        </g>
        <g
           id="g150"
           transform="translate(489.2935,324.5744)">
          <path
             d="m 0,0 v -26.735 c 0,-3.052 -0.685,-5.728 -2.053,-8.027 -1.368,-2.299 -3.345,-4.06 -5.931,-5.285 -2.586,-1.224 -5.643,-1.837 -9.173,-1.837 -5.322,0 -9.455,1.362 -12.4,4.084 -2.944,2.723 -4.416,6.448 -4.416,11.178 V 0 h 8.748 v -25.294 c 0,-3.185 0.641,-5.52 1.925,-7.009 1.283,-1.488 3.406,-2.232 6.37,-2.232 2.868,0 4.95,0.749 6.242,2.246 1.293,1.498 1.94,3.849 1.94,7.052 V 0 Z"
             style="fill:#1f1713;fill-opacity:1;fill-rule:nonzero;stroke:none"
             id="path152" />
        </g>
        <g
           id="g154"
           transform="translate(515.522,283.2561)">
          <path
             d="m 0,0 h -8.776 v 34.027 h -11.24 v 7.291 H 11.239 V 34.027 H 0 Z"
             style="fill:#1f1713;fill-opacity:1;fill-rule:nonzero;stroke:none"
             id="path156" />
        </g>
        <g
           id="g158"
           transform="translate(540.5439,303.9719)">
          <path
             d="m 0,0 c 0,-4.616 0.878,-8.093 2.633,-10.429 1.756,-2.336 4.379,-3.504 7.87,-3.504 7.003,0 10.504,4.644 10.504,13.933 0,9.308 -3.482,13.961 -10.447,13.961 -3.492,0 -6.124,-1.173 -7.898,-3.519 C 0.887,8.097 0,4.616 0,0 m 30.208,0 c 0,-6.839 -1.699,-12.096 -5.096,-15.77 -3.397,-3.674 -8.267,-5.511 -14.609,-5.511 -6.341,0 -11.211,1.837 -14.608,5.511 -3.397,3.674 -5.096,8.95 -5.096,15.827 0,6.877 1.703,12.129 5.11,15.756 3.407,3.626 8.291,5.44 14.651,5.44 6.36,0 11.226,-1.828 14.594,-5.482 C 28.523,12.114 30.208,6.858 30.208,0"
             style="fill:#1f1713;fill-opacity:1;fill-rule:nonzero;stroke:none"
             id="path160" />
        </g>
        <g
           id="g162"
           transform="translate(307.9814,233.5949)">
          <path
             d="M 0,0 H -8.635 V 41.318 H 15.089 V 34.141 H 0 V 23.485 h 14.042 v -7.15 H 0 Z"
             style="fill:#1f1713;fill-opacity:1;fill-rule:nonzero;stroke:none"
             id="path164" />
        </g>
        <g
           id="g166"
           transform="translate(355.1333,233.5949)">
          <path
             d="M 0,0 H -23.838 V 41.318 H 0 V 34.141 H -15.061 V 25.068 H -1.047 V 17.89 H -15.061 V 7.235 H 0 Z"
             style="fill:#1f1713;fill-opacity:1;fill-rule:nonzero;stroke:none"
             id="path168" />
        </g>
        <g
           id="g170"
           transform="translate(388.9932,254.424)">
          <path
             d="m 0,0 c 0,8.874 -3.926,13.312 -11.777,13.312 h -4.671 v -26.906 h 3.765 C -4.228,-13.594 0,-9.063 0,0 m 9.116,0.226 c 0,-6.802 -1.939,-12.011 -5.818,-15.629 -3.878,-3.618 -9.479,-5.426 -16.802,-5.426 h -11.721 v 41.318 h 12.995 c 6.756,0 12.004,-1.78 15.741,-5.341 C 7.248,11.587 9.116,6.613 9.116,0.226"
             style="fill:#1f1713;fill-opacity:1;fill-rule:nonzero;stroke:none"
             id="path172" />
        </g>
        <g
           id="g174"
           transform="translate(430.5254,233.5949)">
          <path
             d="M 0,0 H -23.838 V 41.318 H 0 V 34.141 H -15.061 V 25.068 H -1.047 V 17.89 H -15.061 V 7.235 H 0 Z"
             style="fill:#1f1713;fill-opacity:1;fill-rule:nonzero;stroke:none"
             id="path176" />
        </g>
        <g
           id="g178"
           transform="translate(447.937,256.5715)">
          <path
             d="m 0,0 h 2.831 c 2.774,0 4.822,0.462 6.143,1.385 1.321,0.923 1.982,2.374 1.982,4.352 0,1.959 -0.675,3.354 -2.024,4.183 -1.35,0.829 -3.44,1.244 -6.271,1.244 H 0 Z M 0,-7.122 V -22.977 H -8.777 V 18.342 H 3.284 c 5.624,0 9.786,-1.022 12.485,-3.067 2.699,-2.044 4.048,-5.148 4.048,-9.311 0,-2.431 -0.67,-4.593 -2.01,-6.486 -1.34,-1.894 -3.237,-3.377 -5.69,-4.452 6.228,-9.289 10.286,-15.29 12.174,-18.003 H 14.552 L 4.671,-7.122 Z"
             style="fill:#1f1713;fill-opacity:1;fill-rule:nonzero;stroke:none"
             id="path180" />
        </g>
        <g
           id="g182"
           transform="translate(497.8789,250.7785)">
          <path
             d="m 0,0 c -2.774,8.911 -4.336,13.951 -4.686,15.119 -0.349,1.169 -0.599,2.092 -0.75,2.771 C -6.059,15.478 -7.842,9.514 -10.787,0 Z m 5.096,-17.184 -3.001,9.835 h -15.09 l -3.001,-9.835 h -9.456 l 14.609,41.489 h 10.73 l 14.665,-41.489 z"
             style="fill:#1f1713;fill-opacity:1;fill-rule:nonzero;stroke:none"
             id="path184" />
        </g>
        <g
           id="g186"
           transform="translate(517.7593,233.5949)">
          <path
             d="M 0,0 V 41.318 H 8.777 V 7.235 H 25.565 V 0 Z"
             style="fill:#1f1713;fill-opacity:1;fill-rule:nonzero;stroke:none"
             id="path188" />
        </g>
      </g>
    </g>
  </g>
</svg>
